<?xml version="1.0" encoding="UTF-8"?>
<mxfile host="app.diagrams.net" agent="Mozilla/5.0" version="24.7.7">
  <diagram name="商品特定フロー" id="product-identification-flow">
    <mxGraphModel dx="1434" dy="758" grid="1" gridSize="10" guides="1" tooltips="1" connect="1" arrows="1" fold="1" page="1" pageScale="1" pageWidth="1600" pageHeight="900" math="0" shadow="0">
      <root>
        <mxCell id="0" />
        <mxCell id="1" parent="0" />
        
        <!-- タイトル -->
        <mxCell id="title-1" value="商品特定フロー：商品名の変化とSKU/バーコードによる一意性管理" style="text;html=1;strokeColor=none;fillColor=none;align=center;verticalAlign=middle;whiteSpace=wrap;rounded=0;fontSize=20;fontStyle=1" vertex="1" parent="1">
          <mxGeometry x="450" y="20" width="700" height="40" as="geometry" />
        </mxCell>
        
        <!-- フェーズ区分 -->
        <mxCell id="phase-1" value="納品フェーズ" style="swimlane;fillColor=#dae8fc;strokeColor=#6c8ebf;fontSize=14;fontStyle=1" vertex="1" parent="1">
          <mxGeometry x="40" y="80" width="360" height="760" as="geometry" />
        </mxCell>
        
        <mxCell id="phase-2" value="検品フェーズ" style="swimlane;fillColor=#d5e8d4;strokeColor=#82b366;fontSize=14;fontStyle=1" vertex="1" parent="1">
          <mxGeometry x="400" y="80" width="360" height="760" as="geometry" />
        </mxCell>
        
        <mxCell id="phase-3" value="出品フェーズ" style="swimlane;fillColor=#fff2cc;strokeColor=#d6b656;fontSize=14;fontStyle=1" vertex="1" parent="1">
          <mxGeometry x="760" y="80" width="360" height="760" as="geometry" />
        </mxCell>
        
        <mxCell id="phase-4" value="販売・配送フェーズ" style="swimlane;fillColor=#f8cecc;strokeColor=#b85450;fontSize=14;fontStyle=1" vertex="1" parent="1">
          <mxGeometry x="1120" y="80" width="360" height="760" as="geometry" />
        </mxCell>
        
        <!-- 納品フェーズの内容 -->
        <mxCell id="delivery-1" value="商品受取" style="rounded=1;whiteSpace=wrap;html=1;fillColor=#e1d5e7;strokeColor=#9673a6;" vertex="1" parent="phase-1">
          <mxGeometry x="80" y="40" width="200" height="60" as="geometry" />
        </mxCell>
        
        <mxCell id="delivery-2" value="商品名入力&#xa;（セラーが任意に命名）" style="rounded=1;whiteSpace=wrap;html=1;fillColor=#e1d5e7;strokeColor=#9673a6;" vertex="1" parent="phase-1">
          <mxGeometry x="80" y="130" width="200" height="60" as="geometry" />
        </mxCell>
        
        <mxCell id="delivery-3" value="SKU自動生成&#xa;TWD-YYYYMMDD-XXXXX" style="rounded=1;whiteSpace=wrap;html=1;fillColor=#ffcccc;strokeColor=#ff0000;fontStyle=1" vertex="1" parent="phase-1">
          <mxGeometry x="80" y="220" width="200" height="60" as="geometry" />
        </mxCell>
        
        <mxCell id="delivery-4" value="バーコードPDF生成" style="rounded=1;whiteSpace=wrap;html=1;fillColor=#e1d5e7;strokeColor=#9673a6;" vertex="1" parent="phase-1">
          <mxGeometry x="80" y="310" width="200" height="60" as="geometry" />
        </mxCell>
        
        <mxCell id="delivery-5" value="バーコードラベル貼付" style="rounded=1;whiteSpace=wrap;html=1;fillColor=#e1d5e7;strokeColor=#9673a6;" vertex="1" parent="phase-1">
          <mxGeometry x="80" y="400" width="200" height="60" as="geometry" />
        </mxCell>
        
        <mxCell id="delivery-data" value="データベース登録&#xa;・Product.name&#xa;・Product.sku (unique)&#xa;・Product.status = 'inbound'" style="shape=cylinder3;whiteSpace=wrap;html=1;boundedLbl=1;backgroundOutline=1;size=15;fillColor=#f5f5f5;strokeColor=#666666;fontColor=#333333;" vertex="1" parent="phase-1">
          <mxGeometry x="90" y="500" width="180" height="100" as="geometry" />
        </mxCell>
        
        <!-- 検品フェーズの内容 -->
        <mxCell id="inspection-1" value="バーコードスキャン&#xa;または SKU手入力" style="rounded=1;whiteSpace=wrap;html=1;fillColor=#ccffcc;strokeColor=#00ff00;fontStyle=1" vertex="1" parent="phase-2">
          <mxGeometry x="80" y="40" width="200" height="60" as="geometry" />
        </mxCell>
        
        <mxCell id="inspection-2" value="商品情報取得&#xa;（SKUで一意に特定）" style="rounded=1;whiteSpace=wrap;html=1;fillColor=#d5e8d4;strokeColor=#82b366;" vertex="1" parent="phase-2">
          <mxGeometry x="80" y="130" width="200" height="60" as="geometry" />
        </mxCell>
        
        <mxCell id="inspection-3" value="検品チェックリスト入力" style="rounded=1;whiteSpace=wrap;html=1;fillColor=#d5e8d4;strokeColor=#82b366;" vertex="1" parent="phase-2">
          <mxGeometry x="80" y="220" width="200" height="60" as="geometry" />
        </mxCell>
        
        <mxCell id="inspection-4" value="写真撮影" style="rounded=1;whiteSpace=wrap;html=1;fillColor=#d5e8d4;strokeColor=#82b366;" vertex="1" parent="phase-2">
          <mxGeometry x="80" y="310" width="200" height="60" as="geometry" />
        </mxCell>
        
        <mxCell id="inspection-5" value="ロケーション登録&#xa;（バーコードスキャン）" style="rounded=1;whiteSpace=wrap;html=1;fillColor=#d5e8d4;strokeColor=#82b366;" vertex="1" parent="phase-2">
          <mxGeometry x="80" y="400" width="200" height="60" as="geometry" />
        </mxCell>
        
        <mxCell id="inspection-data" value="データベース更新&#xa;・Product.status = 'storage'&#xa;・Product.currentLocationId&#xa;・InspectionChecklist作成" style="shape=cylinder3;whiteSpace=wrap;html=1;boundedLbl=1;backgroundOutline=1;size=15;fillColor=#f5f5f5;strokeColor=#666666;fontColor=#333333;" vertex="1" parent="phase-2">
          <mxGeometry x="90" y="500" width="180" height="100" as="geometry" />
        </mxCell>
        
        <!-- 出品フェーズの内容 -->
        <mxCell id="listing-1" value="商品選択&#xa;（SKUベース）" style="rounded=1;whiteSpace=wrap;html=1;fillColor=#ffffcc;strokeColor=#ffff00;fontStyle=1" vertex="1" parent="phase-3">
          <mxGeometry x="80" y="40" width="200" height="60" as="geometry" />
        </mxCell>
        
        <mxCell id="listing-2" value="eBay用商品名作成&#xa;（購入されやすい名前）" style="rounded=1;whiteSpace=wrap;html=1;fillColor=#ffcccc;strokeColor=#ff0000;fontStyle=1" vertex="1" parent="phase-3">
          <mxGeometry x="80" y="130" width="200" height="60" as="geometry" />
        </mxCell>
        
        <mxCell id="listing-3" value="テンプレート選択&#xa;または カスタム入力" style="rounded=1;whiteSpace=wrap;html=1;fillColor=#fff2cc;strokeColor=#d6b656;" vertex="1" parent="phase-3">
          <mxGeometry x="80" y="220" width="200" height="60" as="geometry" />
        </mxCell>
        
        <mxCell id="listing-4" value="eBay出品API実行" style="rounded=1;whiteSpace=wrap;html=1;fillColor=#fff2cc;strokeColor=#d6b656;" vertex="1" parent="phase-3">
          <mxGeometry x="80" y="310" width="200" height="60" as="geometry" />
        </mxCell>
        
        <mxCell id="listing-data" value="データベース登録&#xa;・Listing.title (eBay用)&#xa;・Listing.productId (SKU参照)&#xa;・Product.status = 'listed'" style="shape=cylinder3;whiteSpace=wrap;html=1;boundedLbl=1;backgroundOutline=1;size=15;fillColor=#f5f5f5;strokeColor=#666666;fontColor=#333333;" vertex="1" parent="phase-3">
          <mxGeometry x="90" y="500" width="180" height="100" as="geometry" />
        </mxCell>
        
        <!-- 販売・配送フェーズの内容 -->
        <mxCell id="shipping-1" value="注文受信" style="rounded=1;whiteSpace=wrap;html=1;fillColor=#f8cecc;strokeColor=#b85450;" vertex="1" parent="phase-4">
          <mxGeometry x="80" y="40" width="200" height="60" as="geometry" />
        </mxCell>
        
        <mxCell id="shipping-2" value="ピッキングリスト生成&#xa;（SKU表示）" style="rounded=1;whiteSpace=wrap;html=1;fillColor=#f8cecc;strokeColor=#b85450;" vertex="1" parent="phase-4">
          <mxGeometry x="80" y="130" width="200" height="60" as="geometry" />
        </mxCell>
        
        <mxCell id="shipping-3" value="商品ピックアップ&#xa;（バーコードスキャン）" style="rounded=1;whiteSpace=wrap;html=1;fillColor=#ccffcc;strokeColor=#00ff00;fontStyle=1" vertex="1" parent="phase-4">
          <mxGeometry x="80" y="220" width="200" height="60" as="geometry" />
        </mxCell>
        
        <mxCell id="shipping-4" value="梱包・出荷" style="rounded=1;whiteSpace=wrap;html=1;fillColor=#f8cecc;strokeColor=#b85450;" vertex="1" parent="phase-4">
          <mxGeometry x="80" y="310" width="200" height="60" as="geometry" />
        </mxCell>
        
        <mxCell id="shipping-data" value="データベース更新&#xa;・Product.status = 'shipped'&#xa;・Order.status = 'shipped'" style="shape=cylinder3;whiteSpace=wrap;html=1;boundedLbl=1;backgroundOutline=1;size=15;fillColor=#f5f5f5;strokeColor=#666666;fontColor=#333333;" vertex="1" parent="phase-4">
          <mxGeometry x="90" y="500" width="180" height="100" as="geometry" />
        </mxCell>
        
        <!-- フロー矢印 -->
        <mxCell id="arrow-1" style="edgeStyle=orthogonalEdgeStyle;rounded=0;orthogonalLoop=1;jettySize=auto;html=1;strokeWidth=2;" edge="1" parent="1" source="delivery-1" target="delivery-2">
          <mxGeometry relative="1" as="geometry" />
        </mxCell>
        
        <mxCell id="arrow-2" style="edgeStyle=orthogonalEdgeStyle;rounded=0;orthogonalLoop=1;jettySize=auto;html=1;strokeWidth=2;" edge="1" parent="1" source="delivery-2" target="delivery-3">
          <mxGeometry relative="1" as="geometry" />
        </mxCell>
        
        <mxCell id="arrow-3" style="edgeStyle=orthogonalEdgeStyle;rounded=0;orthogonalLoop=1;jettySize=auto;html=1;strokeWidth=2;" edge="1" parent="1" source="delivery-3" target="delivery-4">
          <mxGeometry relative="1" as="geometry" />
        </mxCell>
        
        <mxCell id="arrow-4" style="edgeStyle=orthogonalEdgeStyle;rounded=0;orthogonalLoop=1;jettySize=auto;html=1;strokeWidth=2;" edge="1" parent="1" source="delivery-4" target="delivery-5">
          <mxGeometry relative="1" as="geometry" />
        </mxCell>
        
        <mxCell id="arrow-5" style="edgeStyle=orthogonalEdgeStyle;rounded=0;orthogonalLoop=1;jettySize=auto;html=1;strokeWidth=2;" edge="1" parent="1" source="delivery-5" target="delivery-data">
          <mxGeometry relative="1" as="geometry" />
        </mxCell>
        
        <!-- フェーズ間の矢印 -->
        <mxCell id="phase-arrow-1" style="edgeStyle=orthogonalEdgeStyle;rounded=0;orthogonalLoop=1;jettySize=auto;html=1;strokeWidth=3;strokeColor=#0066CC;" edge="1" parent="1" source="delivery-data" target="inspection-1">
          <mxGeometry relative="1" as="geometry" />
        </mxCell>
        
        <mxCell id="phase-arrow-2" style="edgeStyle=orthogonalEdgeStyle;rounded=0;orthogonalLoop=1;jettySize=auto;html=1;strokeWidth=3;strokeColor=#0066CC;" edge="1" parent="1" source="inspection-data" target="listing-1">
          <mxGeometry relative="1" as="geometry" />
        </mxCell>
        
        <mxCell id="phase-arrow-3" style="edgeStyle=orthogonalEdgeStyle;rounded=0;orthogonalLoop=1;jettySize=auto;html=1;strokeWidth=3;strokeColor=#0066CC;" edge="1" parent="1" source="listing-data" target="shipping-1">
          <mxGeometry relative="1" as="geometry" />
        </mxCell>
        
        <!-- 凡例 -->
        <mxCell id="legend-box" value="" style="rounded=0;whiteSpace=wrap;html=1;fillColor=none;strokeColor=#000000;strokeWidth=2;dashed=1" vertex="1" parent="1">
          <mxGeometry x="1200" y="20" width="280" height="180" as="geometry" />
        </mxCell>
        
        <mxCell id="legend-title" value="凡例" style="text;html=1;strokeColor=none;fillColor=none;align=center;verticalAlign=middle;whiteSpace=wrap;rounded=0;fontSize=16;fontStyle=1" vertex="1" parent="1">
          <mxGeometry x="1320" y="30" width="40" height="20" as="geometry" />
        </mxCell>
        
        <mxCell id="legend-1" value="SKU生成・商品名変更" style="rounded=1;whiteSpace=wrap;html=1;fillColor=#ffcccc;strokeColor=#ff0000;fontStyle=1" vertex="1" parent="1">
          <mxGeometry x="1220" y="60" width="150" height="30" as="geometry" />
        </mxCell>
        
        <mxCell id="legend-2" value="バーコード利用" style="rounded=1;whiteSpace=wrap;html=1;fillColor=#ccffcc;strokeColor=#00ff00;fontStyle=1" vertex="1" parent="1">
          <mxGeometry x="1220" y="100" width="150" height="30" as="geometry" />
        </mxCell>
        
        <mxCell id="legend-3" value="データベース" style="shape=cylinder3;whiteSpace=wrap;html=1;boundedLbl=1;backgroundOutline=1;size=15;fillColor=#f5f5f5;strokeColor=#666666;fontColor=#333333;" vertex="1" parent="1">
          <mxGeometry x="1220" y="140" width="100" height="40" as="geometry" />
        </mxCell>
        
        <!-- 重要ポイント -->
        <mxCell id="note-1" value="重要：SKUは全フェーズを通じて不変の一意識別子" style="text;html=1;strokeColor=none;fillColor=#FFE6CC;align=center;verticalAlign=middle;whiteSpace=wrap;rounded=1;fontSize=14;fontStyle=1" vertex="1" parent="1">
          <mxGeometry x="40" y="860" width="400" height="30" as="geometry" />
        </mxCell>
        
        <mxCell id="note-2" value="商品名は納品時と出品時で異なるが、SKUで紐付け管理" style="text;html=1;strokeColor=none;fillColor=#FFE6CC;align=center;verticalAlign=middle;whiteSpace=wrap;rounded=1;fontSize=14;fontStyle=1" vertex="1" parent="1">
          <mxGeometry x="460" y="860" width="400" height="30" as="geometry" />
        </mxCell>
        
        <mxCell id="note-3" value="バーコードスキャンで物理的な商品とデータを確実に紐付け" style="text;html=1;strokeColor=none;fillColor=#FFE6CC;align=center;verticalAlign=middle;whiteSpace=wrap;rounded=1;fontSize=14;fontStyle=1" vertex="1" parent="1">
          <mxGeometry x="880" y="860" width="400" height="30" as="geometry" />
        </mxCell>
        
      </root>
    </mxGraphModel>
  </diagram>
</mxfile>